<svg xmlns="http://www.w3.org/2000/svg" viewBox="0 0 250 250" role="img" aria-label="Rani Tour phoenix icon"><defs><clipPath id="c"><circle cx="125" cy="125" r="118"/></clipPath></defs><g clip-path="url(#c)"><rect width="125" height="250" fill="#006837"/><rect x="125" width="125" height="250" fill="#9bd500"/><path d="M 120,29 L 119,39 L 118,40 L 118,47 L 117,48 L 114,44 L 114,32 L 114,36 L 113,37 L 113,49 L 114,50 L 114,55 L 115,56 L 114,57 L 115,59 L 113,60 L 111,56 L 111,60 L 115,72 L 114,75 L 111,74 L 111,75 L 116,82 L 115,83 L 111,82 L 111,83 L 115,89 L 117,90 L 117,92 L 116,93 L 111,92 L 119,95 L 120,96 L 120,99 L 123,99 L 124,101 L 126,102 L 125,106 L 128,109 L 127,112 L 121,106 L 122,107 L 121,108 L 118,107 L 119,107 L 126,115 L 127,114 L 130,116 L 135,125 L 137,126 L 133,130 L 134,132 L 133,134 L 134,132 L 135,135 L 138,131 L 141,132 L 139,136 L 139,146 L 140,148 L 139,143 L 140,142 L 142,144 L 142,147 L 142,143 L 143,142 L 144,143 L 144,139 L 143,138 L 144,136 L 146,136 L 149,138 L 151,142 L 151,146 L 154,147 L 153,145 L 154,142 L 159,145 L 171,159 L 175,168 L 176,176 L 177,177 L 177,187 L 176,188 L 175,196 L 170,208 L 164,217 L 152,229 L 140,236 L 138,236 L 135,238 L 118,238 L 124,240 L 125,239 L 135,239 L 136,237 L 140,237 L 141,235 L 144,235 L 146,233 L 148,233 L 149,231 L 151,231 L 152,229 L 154,229 L 154,228 L 156,227 L 159,223 L 161,223 L 162,220 L 168,215 L 170,210 L 172,209 L 174,203 L 178,198 L 179,195 L 178,194 L 180,193 L 180,187 L 182,184 L 182,172 L 180,169 L 180,164 L 168,144 L 167,144 L 165,141 L 162,140 L 161,137 L 163,135 L 167,137 L 168,139 L 171,141 L 171,143 L 174,141 L 179,145 L 180,145 L 177,143 L 177,141 L 179,139 L 181,141 L 186,141 L 188,143 L 193,143 L 187,142 L 186,140 L 183,140 L 182,139 L 183,138 L 181,138 L 180,136 L 181,135 L 185,135 L 187,137 L 193,137 L 195,139 L 206,139 L 206,138 L 200,138 L 198,136 L 195,136 L 193,134 L 194,133 L 208,133 L 209,131 L 216,131 L 217,129 L 221,129 L 222,127 L 228,125 L 230,122 L 229,122 L 228,124 L 226,124 L 225,126 L 221,126 L 219,128 L 214,128 L 212,130 L 190,130 L 188,128 L 181,128 L 179,126 L 175,126 L 173,124 L 170,124 L 169,122 L 163,120 L 160,116 L 158,116 L 146,101 L 146,98 L 144,95 L 144,87 L 143,86 L 145,85 L 146,83 L 152,83 L 156,86 L 159,92 L 160,97 L 161,95 L 165,95 L 167,93 L 168,93 L 171,97 L 178,97 L 176,95 L 177,93 L 176,90 L 178,89 L 178,88 L 176,88 L 173,84 L 171,84 L 172,85 L 171,86 L 169,86 L 167,84 L 163,84 L 160,80 L 157,78 L 155,78 L 154,76 L 139,76 L 139,77 L 136,78 L 135,81 L 133,82 L 133,85 L 131,87 L 131,90 L 130,91 L 128,90 L 128,88 L 126,87 L 126,84 L 123,79 L 122,70 L 120,66 L 121,64 L 120,63 Z" fill="#fff"/><path d="M 125,7 L 126,8 L 125,7 L 124,8 L 110,8 L 109,9 L 104,9 L 103,10 L 99,10 L 91,13 L 88,13 L 82,16 L 80,16 L 58,28 L 50,34 L 34,50 L 24,64 L 14,85 L 10,99 L 10,103 L 9,104 L 8,124 L 7,125 L 8,126 L 8,140 L 9,141 L 9,146 L 10,147 L 11,155 L 16,170 L 24,186 L 34,200 L 50,216 L 38,204 L 30,193 L 28,188 L 21,177 L 14,156 L 14,152 L 12,146 L 12,136 L 11,135 L 11,120 L 12,119 L 12,109 L 14,104 L 16,92 L 18,89 L 18,86 L 29,64 L 32,61 L 36,54 L 53,36 L 61,31 L 62,29 L 64,29 L 72,23 L 94,13 L 98,13 L 101,11 L 106,11 L 111,9 L 124,8 Z" fill="#fff"/><path d="M 179,93 L 181,93 L 182,95 L 184,95 L 187,97 L 187,96 L 185,94 L 183,94 L 182,92 Z" fill="#fff"/></g><circle cx="125" cy="125" r="118" fill="none" stroke="#006837" stroke-width="4"/></svg>